<?xml version="1.0" encoding="utf-8"?>
<!-- Generator: Adobe Illustrator 24.2.3, SVG Export Plug-In . SVG Version: 6.00 Build 0)  -->
<svg version="1.1" id="Layer_1" xmlns="http://www.w3.org/2000/svg" xmlns:xlink="http://www.w3.org/1999/xlink" x="0px" y="0px"
	 viewBox="0 0 26.78 26.78" style="enable-background:new 0 0 26.78 26.78;" xml:space="preserve">
<style type="text/css">
	.st0{fill:none;}
	.st1{fill:#3CB44A;}
	.st2{fill:#D9D9D8;}
</style>
<path class="st1" d="M25.78,12.39h-1.07l0.92-0.92c0.39-0.39,0.39-1.02,0-1.41s-1.02-0.39-1.41,0l-2.34,2.34h-6.07l4.3-4.3h3.3
	c0.55,0,1-0.45,1-1s-0.45-1-1-1h-1.3l0.76-0.76c0.39-0.39,0.39-1.02,0-1.41s-1.02-0.39-1.41,0l-0.76,0.76v-1.3c0-0.55-0.45-1-1-1
	s-1,0.45-1,1v3.3l-4.3,4.3V4.9l2.34-2.34c0.39-0.39,0.39-1.02,0-1.41s-1.02-0.39-1.41,0l-0.92,0.92V1c0-0.55-0.45-1-1-1s-1,0.45-1,1
	v1.07l-0.92-0.92c-0.39-0.39-1.02-0.39-1.41,0s-0.39,1.02,0,1.41l2.34,2.34v6.08l-4.3-4.3v-3.3c0-0.55-0.45-1-1-1s-1,0.45-1,1v1.3
	L5.34,3.92c-0.39-0.39-1.02-0.39-1.41,0s-0.39,1.02,0,1.41L4.68,6.1h-1.3c-0.55,0-1,0.45-1,1s0.45,1,1,1h3.3l4.3,4.3H4.9l-2.34-2.34
	c-0.39-0.39-1.02-0.39-1.41,0s-0.39,1.02,0,1.41l0.92,0.92H1c-0.55,0-1,0.45-1,1s0.45,1,1,1h1.07l-0.92,0.92
	c-0.39,0.39-0.39,1.02,0,1.41c0.2,0.2,0.45,0.29,0.71,0.29s0.51-0.1,0.71-0.29l2.34-2.34h6.07l-4.3,4.3h-3.3c-0.55,0-1,0.45-1,1
	s0.45,1,1,1h1.3l-0.76,0.76c-0.39,0.39-0.39,1.02,0,1.41c0.2,0.2,0.45,0.29,0.71,0.29s0.51-0.1,0.71-0.29L6.1,22.1v1.3
	c0,0.55,0.45,1,1,1s1-0.45,1-1v-3.3l4.3-4.3v6.08l-2.34,2.34c-0.39,0.39-0.39,1.02,0,1.41s1.02,0.39,1.41,0l0.92-0.92v1.07
	c0,0.55,0.45,1,1,1s1-0.45,1-1v-1.07l0.92,0.92c0.2,0.2,0.45,0.29,0.71,0.29s0.51-0.1,0.71-0.29c0.39-0.39,0.39-1.02,0-1.41
	l-2.34-2.34v-6.08l4.3,4.3v3.3c0,0.55,0.45,1,1,1s1-0.45,1-1v-1.3l0.76,0.76c0.2,0.2,0.45,0.29,0.71,0.29s0.51-0.1,0.71-0.29
	c0.39-0.39,0.39-1.02,0-1.41l-0.76-0.76h1.3c0.55,0,1-0.45,1-1s-0.45-1-1-1h-3.3l-4.3-4.3h6.07l2.34,2.34
	c0.2,0.2,0.45,0.29,0.71,0.29s0.51-0.1,0.71-0.29c0.39-0.39,0.39-1.02,0-1.41l-0.92-0.92h1.07c0.55,0,1-0.45,1-1
	S26.33,12.39,25.78,12.39z"/>
</svg>
