<svg width="48" height="48" viewBox="0 0 48 48" fill="none" xmlns="http://www.w3.org/2000/svg">
<g id="Group 13767">
<g id="Clip path group">
<mask id="mask0_23260_41888" style="mask-type:luminance" maskUnits="userSpaceOnUse" x="34" y="0" width="11" height="10">
<g id="f27420acbc">
<path id="Vector" d="M34.875 0H44.5847V9.0315H34.875V0Z" fill="white"/>
</g>
</mask>
<g mask="url(#mask0_23260_41888)">
<g id="Group">
<path id="Vector_2" d="M39.6716 8.92421C42.2395 8.92421 44.3286 6.92225 44.3286 4.46161C44.3286 2.00197 42.2395 0 39.6716 0C37.1048 0 35.0156 2.00197 35.0156 4.46161C35.0156 6.92225 37.1037 8.92421 39.6716 8.92421ZM39.6716 1.61417C41.3107 1.61417 42.6444 2.89173 42.6444 4.46161C42.6444 6.03248 41.3107 7.31004 39.6716 7.31004C38.0325 7.31004 36.6999 6.03248 36.6999 4.46161C36.6999 2.89173 38.0325 1.61417 39.6716 1.61417Z" fill="#0086C9"/>
</g>
</g>
</g>
<g id="Clip path group_2">
<mask id="mask1_23260_41888" style="mask-type:luminance" maskUnits="userSpaceOnUse" x="0" y="9" width="48" height="40">
<g id="ed94bc9130">
<path id="Vector_3" d="M0 9.28418H48V48.0007H0V9.28418Z" fill="white"/>
</g>
</mask>
<g mask="url(#mask1_23260_41888)">
<g id="Group_2">
<path id="Vector_4" d="M44.6172 30.6762L40.9925 26.9852C40.6706 26.6594 40.5219 26.2175 40.5814 25.7726L40.7136 24.7775L42.2841 26.4124C42.8786 27.0305 43.7202 27.3838 44.5967 27.3838C44.6008 27.3838 44.6059 27.3838 44.611 27.3838C45.4926 27.3799 46.3383 27.0167 46.9288 26.3897C47.9723 25.2825 48.0195 23.6368 47.0395 22.4764L41.8361 16.3159L42.0924 14.3819C42.2441 13.2441 41.9027 12.0748 41.1565 11.1752C40.3846 10.2441 39.2324 9.65844 37.993 9.56986L37.3349 9.52163C36.4728 9.45765 35.623 9.63383 34.8665 10.0265L28.6729 13.25C27.4991 13.8592 26.6299 14.8671 26.2229 16.0866L23.7022 23.6525C23.2809 24.9193 23.8211 26.2549 24.919 26.9655L18.8822 32.75L13.9751 28.0472C13.3293 27.4301 12.2745 27.4271 11.6256 28.0482L0.646819 38.5699C-0.00206479 39.1899 -0.00206479 40.2017 0.646819 40.8218L4.51347 44.5275C4.09421 45.4222 4.26027 46.5108 5.02499 47.2451C5.50576 47.7047 6.1444 47.9586 6.82301 47.9586C7.50059 47.9586 8.13923 47.7047 8.62 47.2451C9.38574 46.5108 9.55283 45.4222 9.13254 44.5265L26.9548 27.4478C28.0578 27.3277 29.0552 26.6466 29.4776 25.5905L31.8168 19.7244L31.0337 25.3858C30.8984 26.3651 31.0634 27.3366 31.4714 28.2076L26.2844 43.308C25.9605 44.249 26.063 45.2864 26.5622 46.1535C27.0625 47.0206 27.9266 47.6535 28.9302 47.8917C29.2346 47.9636 29.5411 48 29.8415 48C31.4006 48 32.8235 47.062 33.3514 45.5817L37.5246 33.9035L37.5902 33.9586C38.6296 34.8248 39.2754 36.0777 39.3605 37.3947L39.832 44.6643C39.953 46.5197 41.5727 47.9586 43.4896 47.9586C43.5572 47.9586 43.6259 47.9576 43.6946 47.9537C44.6797 47.9006 45.5828 47.4832 46.2368 46.7756C46.8908 46.0669 47.2158 45.1565 47.1502 44.2116L46.4962 34.81C46.3896 33.2687 45.7212 31.8002 44.6172 30.6762ZM45.6443 23.558C46.0656 24.0561 46.0451 24.7618 45.5972 25.2362C45.3399 25.5098 44.9862 25.6614 44.6018 25.6634C44.5987 25.6634 44.5977 25.6634 44.5946 25.6634C44.2133 25.6634 43.8617 25.5157 43.6023 25.246L41.0089 22.5472L41.5214 18.6791L45.6443 23.558ZM12.8014 29.3543L17.6152 33.9665L16.1309 35.3888L11.318 30.7765L12.8014 29.3543ZM10.049 31.9921L14.8628 36.6043L7.8645 43.311C7.20229 43.0265 6.44475 43.0265 5.78254 43.311L2.01019 39.6949L10.049 31.9921ZM7.34991 46.0285C7.06801 46.2982 6.57801 46.2982 6.29508 46.0285C6.00293 45.749 6.00293 45.2972 6.29508 45.0177C6.44065 44.8779 6.63132 44.809 6.82198 44.809C7.01265 44.809 7.20434 44.8779 7.34991 45.0177C7.64206 45.2972 7.64206 45.75 7.34991 46.0285ZM31.6538 45.0246C31.3268 45.9389 30.3387 46.4567 29.3617 46.2224C28.8338 46.0974 28.3971 45.7775 28.1347 45.3218C27.8713 44.8651 27.82 44.3415 27.9902 43.8454L32.7702 29.9301C32.803 29.9586 32.8296 29.9911 32.8635 30.0187L36.0617 32.685L31.6538 45.0246ZM44.8929 45.6338C44.5598 45.9951 44.0995 46.2096 43.5952 46.2362C42.5885 46.2874 41.6875 45.5384 41.6239 44.5561L41.1524 37.2884C41.0376 35.5138 40.1683 33.8267 38.769 32.6614L34.0403 28.7204C33.1095 27.9449 32.6513 26.7834 32.8132 25.6132L34.191 15.6545L30.8881 17.2362L27.8026 24.9773C27.5606 25.5807 26.8708 25.8947 26.2301 25.6988C25.5689 25.4941 25.2019 24.811 25.4141 24.1762L27.9328 16.6102C28.1983 15.8159 28.7641 15.1594 29.5288 14.7618L35.7214 11.5403C36.1755 11.3051 36.686 11.1968 37.2006 11.2372L37.8587 11.2854C38.5989 11.3395 39.2887 11.689 39.7511 12.246C40.198 12.7844 40.402 13.4842 40.3108 14.1653L38.7998 25.5561C38.6727 26.5128 38.9945 27.4626 39.6834 28.1643L43.3081 31.8553C44.1303 32.6909 44.6244 33.7815 44.7053 34.9252L45.3583 44.3267C45.3942 44.808 45.2281 45.2736 44.8929 45.6338Z" fill="#0086C9"/>
</g>
</g>
</g>
</g>
</svg>
